<?xml version="1.0" encoding="utf-8"?>
<!-- Generator: Adobe Illustrator 16.0.0, SVG Export Plug-In . SVG Version: 6.00 Build 0)  -->
<!DOCTYPE svg PUBLIC "-//W3C//DTD SVG 1.1//EN" "http://www.w3.org/Graphics/SVG/1.1/DTD/svg11.dtd">
<svg version="1.1" id="Layer_1" xmlns="http://www.w3.org/2000/svg" xmlns:xlink="http://www.w3.org/1999/xlink" x="0px" y="0px"
	 width="31.279px" height="41.08px" viewBox="0 0 31.279 41.08" enable-background="new 0 0 31.279 41.08" xml:space="preserve">
<g>
	<path fill="#FFFFFF" d="M1.866,35.424c2.13,3.39,5.873,5.656,10.168,5.656c4.351,0,8.125-2.328,10.238-5.786
		c0.293-0.281,0.714-1.245,0.755-1.391c0.659-1.487,1.041-3.125,1.041-4.858c0-2.792-0.994-5.33-2.59-7.375
		C18.825,16.712,14.388,10.999,11.172,0C6.409,15.026,1.457,20.007,0.41,26.092C0.167,27.043,0,28.022,0,29.045
		c0,1.804,0.423,3.492,1.131,5.024C1.247,34.465,1.649,35.354,1.866,35.424"/>
</g>
</svg>
