<?xml version="1.0" encoding="utf-8"?>
<!-- Generator: Adobe Illustrator 16.0.0, SVG Export Plug-In . SVG Version: 6.00 Build 0)  -->
<!DOCTYPE svg PUBLIC "-//W3C//DTD SVG 1.1//EN" "http://www.w3.org/Graphics/SVG/1.1/DTD/svg11.dtd">
<svg version="1.1" id="Layer_1" xmlns="http://www.w3.org/2000/svg" xmlns:xlink="http://www.w3.org/1999/xlink" x="0px" y="0px"
	 width="50px" height="50px" viewBox="0 0 50 50" enable-background="new 0 0 50 50" xml:space="preserve">
<g>
	<g>
		<g>
			<defs>
				<rect id="SVGID_1_" x="2.481" y="2.5" width="45.037" height="45"/>
			</defs>
			<clipPath id="SVGID_2_">
				<use xlink:href="#SVGID_1_"  overflow="visible"/>
			</clipPath>
			<path clip-path="url(#SVGID_2_)" d="M46.145,11.079H3.881v1.796c0.001,9.329,0,18.659,0.006,27.987
				c0,2.255,0.148,2.408,2.371,2.41c8.299,0.006,16.597,0.006,24.896-0.004c0.89-0.001,1.808-0.119,1.951,1.274
				c-0.447,0.044-0.878,0.12-1.31,0.122c-8.592,0.005-17.182,0.009-25.772-0.005c-2.708-0.003-3.525-0.833-3.527-3.558
				C2.485,29.849,2.483,18.595,2.49,7.342C2.491,4.878,3.359,4.035,5.85,3.963c0.712-0.021,1.621,0.255,1.625-0.966
				c0.43,0.055,1.065-0.051,1.258,0.192c0.877,1.106,2.144,1.074,2.987-0.075c0.153-0.208,1.047-0.222,1.22-0.013
				c1.019,1.232,1.983,1.211,3.018-0.071c0.166-0.207,1.004-0.222,1.18-0.02c1.182,1.357,1.795,1.347,3.063-0.056
				c0.163-0.181,1-0.095,1.179,0.135c0.977,1.243,1.903,1.171,3.007-0.051c1.354-1.5,1.049,0.578,1.68,0.898
				c0.944-0.125,2.293,0.625,2.709-1.112c0.003-0.013,0.877,0.01,1.045,0.237c0.927,1.252,1.995,1.248,3.023,0.016
				c0.166-0.2,1.056-0.164,1.208,0.05c0.828,1.159,2.084,1.176,2.987,0.043c0.193-0.242,1.087-0.326,1.22-0.151
				c0.986,1.291,2.018,1.319,3.056,0.077c0.19-0.229,0.781-0.123,1.189-0.173c0.103,1.561,1.307,0.968,2.113,1.025
				c1.763,0.127,2.854,0.973,2.859,2.632c0.035,11.542,0.019,23.085,0.019,34.627c-0.177,0.063-0.353,0.123-0.531,0.186
				c-0.271-0.795-0.778-1.589-0.784-2.386c-0.057-8.571-0.034-17.143-0.033-25.714V11.079z M37.738,6.709
				c-0.15-0.073-0.357-0.108-0.449-0.228c-1.21-1.589-1.799-1.586-3.352-0.107c-0.175,0.166-0.907,0.067-1.1-0.153
				c-1.083-1.24-2.028-1.236-3.036-0.013c-0.155,0.187-1.035,0.115-1.23-0.123c-0.891-1.087-2.054-1.047-2.974,0.105
				c-0.179,0.226-1.008,0.294-1.183,0.107c-1.228-1.319-1.843-1.319-3.07,0.002c-0.175,0.188-1.008,0.119-1.188-0.107
				c-0.98-1.234-1.866-1.216-3.018,0.058c-0.183,0.202-1.164,0.041-1.169-0.005c-0.12-1.391-1.236-0.996-1.854-0.845
				c-0.631,0.153-1.152,1.179-1.693,1.158c-0.617-0.025-1.227-1.168-1.805-1.138c-0.95,0.049-1.872,0.65-2.936,1.069
				C7.422,4.557,5.691,5.047,4.707,5.565c-1.591,0.84-0.646,2.532-0.728,3.923h42.132c-0.199-1.445,0.802-3.142-0.892-3.978
				c-1.173-0.579-2.598-0.478-3.115,1.242C39.723,4.821,39.223,4.823,37.738,6.709"/>
			<path clip-path="url(#SVGID_2_)" d="M38.38,41.338c-1.227,1.213-2.112,2.09-3.001,2.967c-0.633-1.034-1.449-2.001-1.866-3.116
				c-1.195-3.202-2.279-6.449-3.287-9.714c-0.209-0.673-0.147-1.694,0.247-2.189c0.276-0.346,1.405-0.266,2.031-0.039
				c3.387,1.223,6.759,2.49,10.078,3.883c0.802,0.335,1.382,1.199,2.064,1.821c-0.619,0.627-1.211,1.286-1.868,1.869
				c-0.291,0.256-0.717,0.361-1.206,0.593c1.459,1.594,2.861,3.126,4.266,4.659c0.197,0.214,0.403,0.421,0.598,0.64
				c1.277,1.432,1.443,3.208,0.392,4.2c-1.054,0.995-2.748,0.71-4.155-0.74c-1.26-1.298-2.497-2.615-3.716-3.95
				C38.649,41.884,38.45,41.449,38.38,41.338 M43.46,34.943c-4.221-1.629-8.079-3.116-12.27-4.733
				c1.502,4.342,2.873,8.303,4.35,12.565c0.725-1.563,1.296-2.796,1.942-4.189c1.953,2.094,3.796,4.107,5.685,6.079
				c0.724,0.754,1.587,2.148,2.654,1.086c0.985-0.982-0.274-1.979-1.003-2.771c-1.827-1.99-3.686-3.951-5.646-6.049
				C40.634,36.252,41.837,35.695,43.46,34.943"/>
			<path clip-path="url(#SVGID_2_)" d="M24.279,27.258c0,3.205-0.789,4.063-3.736,4.063c-4.098,0-4.685-0.541-4.683-4.327
				c0.001-3.474,0.688-4.084,4.596-4.08C23.549,22.918,24.28,23.75,24.279,27.258 M20.168,24.314
				c-2.91,0.007-2.91,0.007-2.902,3.099c0.006,2.485,0.04,2.511,3.135,2.505c2.412-0.006,2.48-0.088,2.477-2.996
				C22.873,24.433,22.741,24.307,20.168,24.314"/>
			<path clip-path="url(#SVGID_2_)" d="M20.035,13.099c3.604-0.001,4.244,0.638,4.244,4.235c0,3.445-0.77,4.184-4.362,4.182
				c-3.203-0.001-4.059-0.834-4.057-3.956C15.863,13.695,16.423,13.1,20.035,13.099 M22.877,17.363c0-2.752-0.074-2.847-2.253-2.851
				c-3.355-0.005-3.355-0.005-3.358,2.604c-0.002,2.896,0.088,2.998,2.677,3C22.764,20.118,22.875,20.014,22.877,17.363"/>
			<path clip-path="url(#SVGID_2_)" d="M34.12,17.305c-0.003,3.567-0.692,4.215-4.482,4.21c-3.159-0.003-3.958-0.902-3.956-4.444
				c0.004-3.379,0.719-3.981,4.716-3.974C33.469,13.102,34.122,13.841,34.12,17.305 M29.96,14.509c-2.762,0-2.872,0.1-2.874,2.614
				c-0.004,2.8,0.169,2.99,2.719,2.993c2.794,0.003,2.912-0.103,2.917-2.583C32.727,14.509,32.727,14.509,29.96,14.509"/>
			<path clip-path="url(#SVGID_2_)" d="M6.01,36.79c0.001-3.328,0.79-4.08,4.275-4.079c3.343,0.002,4.179,0.892,4.176,4.446
				c-0.003,3.313-0.777,3.994-4.533,3.991C6.589,41.146,6.009,40.499,6.01,36.79 M10.146,39.746c2.81,0,2.906-0.091,2.904-2.769
				c-0.002-2.644-0.212-2.853-2.877-2.853s-2.76,0.104-2.761,2.913C7.412,39.735,7.424,39.746,10.146,39.746"/>
			<path clip-path="url(#SVGID_2_)" d="M20.038,41.147c-3.546,0-4.179-0.622-4.177-4.109c0.001-3.551,0.761-4.328,4.225-4.327
				c3.463,0.002,4.196,0.798,4.192,4.548C24.276,40.47,23.539,41.148,20.038,41.147 M20.031,39.748
				c2.809-0.002,2.843-0.034,2.845-2.621c0.001-2.852-0.132-3.002-2.688-3.005c-2.816-0.004-2.923,0.103-2.922,2.938
				C17.267,39.738,17.276,39.748,20.031,39.748"/>
			<path clip-path="url(#SVGID_2_)" d="M10.239,13.098c3.51,0.001,4.226,0.731,4.222,4.308c-0.004,3.304-0.886,4.113-4.489,4.109
				c-3.346-0.003-3.968-0.715-3.964-4.541C6.011,13.734,6.708,13.096,10.239,13.098 M7.413,17.249
				c-0.004,2.755,0.094,2.862,2.625,2.867c2.816,0.006,3.001-0.162,3.01-2.709c0.009-2.757-0.114-2.894-2.6-2.898
				C7.416,14.502,7.416,14.502,7.413,17.249"/>
			<path clip-path="url(#SVGID_2_)" d="M43.977,17.341c0.007,3.363-0.729,4.169-3.798,4.175c-3.863,0.006-4.636-0.708-4.642-4.296
				c-0.005-3.406,0.757-4.119,4.409-4.123C43.359,13.093,43.97,13.736,43.977,17.341 M39.777,14.505
				c-2.619-0.014-2.832,0.171-2.844,2.49c-0.017,2.78,0.235,3.102,2.436,3.12c3.088,0.024,3.226-0.088,3.237-2.628
				C42.619,14.569,42.573,14.52,39.777,14.505"/>
			<path clip-path="url(#SVGID_2_)" d="M10.061,31.317c-3.377,0-4.053-0.678-4.052-4.062c0.001-3.771,0.591-4.342,4.49-4.341
				c3.188,0.002,3.966,0.873,3.962,4.432C14.456,30.585,13.644,31.317,10.061,31.317 M10.036,29.912
				c2.843,0.002,3.006-0.132,3.013-2.495c0.008-2.987-0.095-3.1-2.766-3.102c-2.801-0.002-2.868,0.054-2.876,2.424
				C7.396,29.911,7.396,29.911,10.036,29.912"/>
			<path clip-path="url(#SVGID_2_)" d="M38.821,30.011c3.886-0.261,3.828-0.261,3.808-3.647c-0.012-1.637-0.751-2.089-2.264-2.073
				c-3.252,0.037-3.253-0.013-3.519,5.041c-0.485-0.282-1.058-0.41-1.215-0.738c-1.316-2.726,0.606-5.67,3.656-5.678
				c0.641-0.001,1.301-0.096,1.916,0.028c0.655,0.131,1.38,0.338,1.877,0.75c1.365,1.129,1.299,5.734-0.02,6.935
				C42.146,31.462,41.749,31.415,38.821,30.011"/>
			<path clip-path="url(#SVGID_2_)" d="M33.555,28.29c-0.279-0.532-0.753-1.048-0.799-1.601c-0.191-2.289-0.219-2.411-2.45-2.356
				c-1.091,0.027-2.428-0.509-3.099,0.918c-0.528,1.122,0.036,3.694,0.872,4.641c0.278,0.314,0.335,0.822,0.541,1.364
				c-2.664-0.426-3.465-2.163-2.923-5.794c0.332-2.227,2.35-3.08,6.001-2.536C33.771,23.236,34.456,24.797,33.555,28.29"/>
			<path clip-path="url(#SVGID_2_)" d="M29.421,33.974c-2.112,0.38-3.421,3.512-1.971,5.111c0.488,0.539,1.653,0.551,2.526,0.637
				c0.882,0.083,1.828-0.109,1.804,1.322c-0.304,0.033-0.629,0.078-0.954,0.102c-5.646,0.399-5.28-1.787-5.055-5.639
				c0.051-0.872,1.011-1.855,1.799-2.479C28.525,32.271,29.291,32.702,29.421,33.974"/>
		</g>
	</g>
</g>
</svg>
