<?xml version="1.0" encoding="utf-8"?>
<!-- Generator: Adobe Illustrator 16.0.0, SVG Export Plug-In . SVG Version: 6.00 Build 0)  -->
<!DOCTYPE svg PUBLIC "-//W3C//DTD SVG 1.1//EN" "http://www.w3.org/Graphics/SVG/1.1/DTD/svg11.dtd">
<svg version="1.1" id="Layer_1" xmlns="http://www.w3.org/2000/svg" xmlns:xlink="http://www.w3.org/1999/xlink" x="0px" y="0px"
	 width="25.32px" height="30px" viewBox="0 0 25.32 30" enable-background="new 0 0 25.32 30" xml:space="preserve">
<path d="M21.588,8.658c-0.046-0.455-0.432-0.804-0.893-0.802h-2.678c0-2.959-2.4-5.356-5.355-5.356
	c-2.959,0-5.357,2.397-5.357,5.356h-2.68C4.164,7.854,3.777,8.203,3.73,8.658L2.125,24.732c-0.064,0.686,0.162,1.365,0.625,1.876
	c0.525,0.57,1.266,0.895,2.043,0.892h15.733c0.776,0.003,1.52-0.321,2.045-0.892c0.461-0.51,0.687-1.186,0.625-1.867L21.588,8.658z
	 M12.662,4.284c1.973,0,3.571,1.6,3.571,3.572H9.09C9.09,5.884,10.687,4.284,12.662,4.284"/>
</svg>
