<?xml version="1.0" encoding="utf-8"?>
<!-- Generator: Adobe Illustrator 16.0.0, SVG Export Plug-In . SVG Version: 6.00 Build 0)  -->
<!DOCTYPE svg PUBLIC "-//W3C//DTD SVG 1.1//EN" "http://www.w3.org/Graphics/SVG/1.1/DTD/svg11.dtd">
<svg version="1.1" id="Layer_1" xmlns="http://www.w3.org/2000/svg" xmlns:xlink="http://www.w3.org/1999/xlink" x="0px" y="0px"
	 width="25.32px" height="30px" viewBox="0 0 25.32 30" enable-background="new 0 0 25.32 30" xml:space="preserve">
<path d="M21.483,8.664C21.437,8.206,21.055,7.857,20.6,7.86h-2.646c0-2.959-2.369-5.358-5.293-5.358c-2.921,0-5.29,2.399-5.29,5.358
	H4.727C4.271,7.858,3.889,8.206,3.845,8.664L2.257,24.735c-0.062,0.684,0.162,1.365,0.619,1.875
	c0.519,0.572,1.251,0.896,2.019,0.892h15.54c0.767,0.004,1.499-0.32,2.019-0.892c0.454-0.508,0.678-1.185,0.617-1.865L21.483,8.664z
	 M12.663,4.289c1.95,0,3.528,1.599,3.528,3.572H9.136C9.136,5.886,10.716,4.289,12.663,4.289 M21.138,25.422
	c-0.184,0.194-0.438,0.301-0.704,0.295H4.894c-0.265,0.007-0.523-0.1-0.705-0.295c-0.127-0.129-0.19-0.309-0.178-0.491L5.52,9.646
	h1.854v1.786c0,0.494,0.394,0.894,0.881,0.894c0.486,0,0.883-0.399,0.883-0.894V9.646h7.055v1.786c0,0.494,0.395,0.894,0.882,0.894
	c0.486,0,0.883-0.399,0.883-0.894V9.646h1.853l1.507,15.285C21.329,25.113,21.264,25.293,21.138,25.422"/>
</svg>
