<svg width="22" height="17" viewBox="0 0 22 17" fill="none" xmlns="http://www.w3.org/2000/svg">
<g clip-path="url(#clip0)">
<path d="M8.35366 11.3132C11.3151 7.96435 14.1917 4.71613 17.0683 1.4679C17.3201 1.18239 17.5664 0.882841 17.8593 0.637118C18.7132 -0.0649486 19.9503 -0.146856 20.9055 0.403096C21.91 0.97645 22.2795 2.03189 21.7732 2.98904C21.5871 3.34007 21.3298 3.67239 21.0561 3.9813C17.6184 7.84968 14.1753 11.7181 10.7266 15.5794C9.22403 17.2667 7.61193 17.2784 6.08195 15.6145C4.30837 13.6979 2.54301 11.7742 0.78312 9.84355C-0.306206 8.6477 -0.251466 7.43546 0.898074 6.63979C2.09141 5.81135 3.50643 6.04771 4.6505 7.28335C5.85752 8.58451 7.05085 9.89036 8.35366 11.3132Z" fill="#010101"/>
</g>
<defs>
<clipPath id="clip0">
<rect width="22" height="16.8098" fill="white" transform="translate(0 0.0429459)"/>
</clipPath>
</defs>
</svg>
