<?xml version="1.0" encoding="utf-8"?>
<!-- Generator: Adobe Illustrator 16.0.0, SVG Export Plug-In . SVG Version: 6.00 Build 0)  -->
<!DOCTYPE svg PUBLIC "-//W3C//DTD SVG 1.1//EN" "http://www.w3.org/Graphics/SVG/1.1/DTD/svg11.dtd">
<svg version="1.1" id="Layer_1" xmlns="http://www.w3.org/2000/svg" xmlns:xlink="http://www.w3.org/1999/xlink" x="0px" y="0px"
	 width="11.358px" height="21.581px" viewBox="0 0 11.358 21.581" enable-background="new 0 0 11.358 21.581" xml:space="preserve">
<g>
	<path fill="#010101" d="M10.662,21.517c-0.488,0.092-0.896-0.025-1.093-0.552c-0.34-0.909-0.707-1.81-1.02-2.728
		c-0.156-0.471-0.375-0.678-0.906-0.661c-1.315,0.043-2.634,0.036-3.951,0.004c-0.479-0.013-0.714,0.142-0.866,0.601
		c-0.292,0.896-0.649,1.769-0.979,2.649c-0.226,0.604-0.668,0.91-1.273,0.665c-0.599-0.239-0.689-0.738-0.457-1.352
		c1.55-4.082,3.063-8.178,4.636-12.25c0.133-0.342,0.597-0.729,0.942-0.765C5.973,7.1,6.458,7.514,6.582,7.834
		C8.149,11.908,9.668,16,11.196,20.087C11.268,20.273,11.733,21.312,10.662,21.517 M7.583,15.706
		c-0.63-1.677-1.23-3.278-1.908-5.087c-0.676,1.813-1.276,3.417-1.9,5.087H7.583z"/>
	<path fill="#010101" d="M5.7,4.687c-0.858,0-1.716,0.026-2.574-0.007c-0.721-0.028-0.885-0.337-0.482-0.92
		c0.777-1.13,1.582-2.24,2.392-3.346C5.431-0.126,5.9-0.142,6.301,0.392c0.84,1.12,1.664,2.252,2.458,3.404
		c0.363,0.528,0.177,0.859-0.485,0.882C7.417,4.708,6.559,4.687,5.7,4.687"/>
</g>
</svg>
