<?xml version="1.0" encoding="utf-8"?>
<!-- Generator: Adobe Illustrator 16.0.0, SVG Export Plug-In . SVG Version: 6.00 Build 0)  -->
<!DOCTYPE svg PUBLIC "-//W3C//DTD SVG 1.1//EN" "http://www.w3.org/Graphics/SVG/1.1/DTD/svg11.dtd">
<svg version="1.1" id="Layer_1" xmlns="http://www.w3.org/2000/svg" xmlns:xlink="http://www.w3.org/1999/xlink" x="0px" y="0px"
	 width="25px" height="40px" viewBox="-3.417 -5.167 25 40" enable-background="new -3.417 -5.167 25 40" xml:space="preserve">
<g>
	<path display="none" fill="#000101" d="M17.583,22.432c0-2.214-0.742-4.332-2.051-5.979c-0.469-0.874-1.012-1.778-1.594-2.758
		C12.07,10.566,9.744,6.673,7.946,0.53L6.981-2.768L5.943,0.508C4.048,6.486,2.14,10.245,0.606,13.266
		c-1.297,2.55-2.319,4.564-2.687,6.713c-0.229,0.899-0.336,1.679-0.336,2.453c0,1.427,0.314,2.834,0.882,4.033
		c0.098,0.33,0.333,0.998,0.753,1.411c1.86,2.856,4.974,4.558,8.362,4.558c3.461,0,6.616-1.764,8.461-4.724
		c0.385-0.458,0.682-1.24,0.682-1.24l-0.006,0.002C17.294,25.182,17.583,23.82,17.583,22.432"/>
	<path fill="#000101" d="M7.581,29.789c-2.479,0-4.779-1.252-6.149-3.354l-0.079-0.156l-0.211-0.202
		C1.12,26.039,1.054,25.907,1,25.722l-0.058-0.196l-0.086-0.19c-0.407-0.857-0.629-1.89-0.629-2.903c0-0.545,0.08-1.119,0.252-1.803
		l0.027-0.104l0.017-0.102c0.3-1.756,1.243-3.612,2.444-5.972c1.159-2.29,2.53-4.99,3.956-8.726
		c1.254,3.205,2.886,6.214,4.649,9.161c1.396,2.334,3.365,4.689,3.365,7.548c0,1.016-0.213,2.017-0.635,2.967l-0.227,0.505
		c-0.025,0.047-0.047,0.085-0.059,0.106l-0.121,0.14l-0.098,0.158C12.439,28.492,10.115,29.789,7.581,29.789 M7.581,32.431
		c3.458,0,6.612-1.761,8.459-4.723c0.387-0.458,0.684-1.238,0.684-1.238h-0.006c0.572-1.293,0.863-2.648,0.863-4.038
		c0-2.219-0.744-4.338-2.051-5.981c-0.467-0.874-1.01-1.777-1.596-2.763c-1.867-3.126-4.191-7.02-5.989-13.163L6.978-2.765
		L5.943,0.507c-1.896,5.981-3.806,9.736-5.339,12.761c-1.295,2.549-2.321,4.565-2.686,6.714c-0.23,0.905-0.335,1.684-0.335,2.45
		c0,1.427,0.314,2.831,0.881,4.033c0.095,0.33,0.334,0.998,0.755,1.409C1.079,30.73,4.193,32.431,7.581,32.431"/>
</g>
</svg>
