<?xml version="1.0" encoding="utf-8"?>
<!-- Generator: Adobe Illustrator 16.0.0, SVG Export Plug-In . SVG Version: 6.00 Build 0)  -->
<!DOCTYPE svg PUBLIC "-//W3C//DTD SVG 1.1//EN" "http://www.w3.org/Graphics/SVG/1.1/DTD/svg11.dtd">
<svg version="1.1" id="Layer_1" xmlns="http://www.w3.org/2000/svg" xmlns:xlink="http://www.w3.org/1999/xlink" x="0px" y="0px"
	 width="30px" height="30px" viewBox="0 0 30 30" enable-background="new 0 0 30 30" xml:space="preserve">
<g>
	<path d="M15.119,24.034h-0.004c-0.461,0-0.909,0.187-1.234,0.516c-0.325,0.329-0.502,0.767-0.5,1.229
		c0.003,0.464,0.186,0.896,0.517,1.223c0.324,0.321,0.755,0.498,1.212,0.499c0.464-0.014,0.9-0.178,1.228-0.504
		c0.326-0.327,0.51-0.761,0.51-1.225c0.001-0.465-0.177-0.897-0.505-1.226C16.016,24.216,15.581,24.036,15.119,24.034"/>
	<path d="M20.138,4.478c-1.4-1.323-3.222-2.039-5.138-1.974c-1.996-0.055-3.919,0.698-5.31,2.088
		C8.653,5.607,7.977,6.953,7.781,8.383C7.753,8.58,7.813,8.779,7.942,8.927c0.126,0.146,0.304,0.225,0.496,0.225h0.893
		c0.347,0,0.649-0.225,0.703-0.525c0.167-0.952,0.615-1.819,1.292-2.51c0.964-0.983,2.304-1.525,3.681-1.47
		c0.055,0,0.109-0.002,0.164-0.002c1.232,0,2.443,0.455,3.397,1.292c0.994,0.867,1.531,2.12,1.479,3.438
		c0.063,1.616-0.894,3.217-2.438,4.066l-0.959,0.526c-0.512,0.294-0.999,0.597-1.441,0.896c-0.405,0.299-0.731,0.727-0.927,1.219
		c-0.304,0.766-0.445,1.573-0.419,2.396v0.707c0,0.363,0.294,0.659,0.658,0.659h1.049c0.363,0,0.657-0.296,0.657-0.659v-0.94
		c-0.023-0.742,0.264-1.491,0.787-2.04c0.479-0.498,1.03-0.912,1.639-1.229c0.588-0.309,1.163-0.656,1.708-1.034
		c0.543-0.421,0.997-1,1.283-1.657c0.411-0.912,0.609-1.917,0.577-2.913C22.267,7.491,21.506,5.719,20.138,4.478"/>
</g>
</svg>
