<?xml version="1.0" encoding="utf-8"?>
<!-- Generator: Adobe Illustrator 16.0.0, SVG Export Plug-In . SVG Version: 6.00 Build 0)  -->
<!DOCTYPE svg PUBLIC "-//W3C//DTD SVG 1.1//EN" "http://www.w3.org/Graphics/SVG/1.1/DTD/svg11.dtd">
<svg version="1.1" id="Layer_1" xmlns="http://www.w3.org/2000/svg" xmlns:xlink="http://www.w3.org/1999/xlink" x="0px" y="0px"
	 width="30px" height="30.175px" viewBox="0 0 30 30.175" enable-background="new 0 0 30 30.175" xml:space="preserve">
<path fill="#262626" d="M5.584,30.175c0-1.59-0.017-3.096,0.009-4.599c0.008-0.479-0.137-0.783-0.52-1.104
	C1.779,21.703-0.043,18.185,0,13.846C0.043,9.683,1.782,6.262,4.959,3.611c6.178-5.151,15.331-4.739,21.065,0.9
	c4.913,4.831,5.352,12.709,0.877,17.95c-4.158,4.866-9.509,6.311-15.679,5.053c-0.391-0.08-0.695-0.048-1.036,0.146
	c-1.328,0.753-2.669,1.483-4.004,2.218C6.01,29.974,5.83,30.053,5.584,30.175 M5.526,18.509c0.022,0.031,0.043,0.067,0.064,0.1
	c2.345-1.285,4.688-2.574,7.068-3.88c1.273,1.357,2.538,2.707,3.83,4.082c2.651-2.833,5.27-5.631,7.887-8.429
	c-2.034,1.016-3.994,2.106-5.954,3.196c-1.092,0.609-1.094,0.608-1.944-0.271c-0.13-0.134-0.258-0.264-0.387-0.396
	c-0.885-0.928-1.77-1.854-2.681-2.807C10.753,12.935,8.14,15.722,5.526,18.509"/>
</svg>
