<?xml version="1.0" encoding="utf-8"?>
<!-- Generator: Adobe Illustrator 16.0.0, SVG Export Plug-In . SVG Version: 6.00 Build 0)  -->
<!DOCTYPE svg PUBLIC "-//W3C//DTD SVG 1.1//EN" "http://www.w3.org/Graphics/SVG/1.1/DTD/svg11.dtd">
<svg version="1.1" id="Layer_1" xmlns="http://www.w3.org/2000/svg" xmlns:xlink="http://www.w3.org/1999/xlink" x="0px" y="0px"
	 width="35px" height="30px" viewBox="0 0 35 30" enable-background="new 0 0 35 30" xml:space="preserve">
<g>
	<path d="M31.309,25.759c-0.148-0.188-0.495-0.478-0.646-0.849c-0.667-1.671-1.294-3.356-1.9-5.051
		c-0.166-0.465-0.375-0.664-0.903-0.659c-2.436,0.032-4.87,0.029-7.304,0.004c-0.481-0.005-0.706,0.144-0.868,0.596
		c-0.608,1.691-1.267,3.365-1.88,5.058c-0.234,0.642-0.59,1.121-1.318,0.854c-0.734-0.271-0.665-0.87-0.425-1.503
		c2.376-6.308,4.737-12.615,7.105-18.922c0.189-0.505,0.34-1.063,1.056-1.054c0.717,0.01,0.856,0.573,1.046,1.077
		c2.368,6.307,4.731,12.615,7.094,18.923C32.715,25.165,32.389,25.795,31.309,25.759 M24.211,7.759
		c-1.229,3.292-2.388,6.396-3.568,9.557h7.152C26.603,14.138,25.445,11.048,24.211,7.759"/>
	<path d="M13.161,25.726c-0.488,0.093-0.896-0.025-1.092-0.551c-0.34-0.909-0.708-1.81-1.02-2.728
		c-0.157-0.47-0.375-0.677-0.906-0.661c-1.316,0.043-2.634,0.036-3.951,0.004c-0.479-0.013-0.714,0.142-0.866,0.601
		c-0.292,0.895-0.649,1.768-0.979,2.649c-0.226,0.604-0.668,0.91-1.273,0.665c-0.599-0.239-0.689-0.738-0.457-1.352
		c1.55-4.082,3.063-8.177,4.636-12.25c0.133-0.342,0.597-0.729,0.942-0.765c0.277-0.029,0.762,0.385,0.886,0.706
		c1.567,4.073,3.087,8.165,4.615,12.253C13.767,24.482,14.232,25.521,13.161,25.726 M10.083,19.915
		c-0.63-1.677-1.23-3.278-1.908-5.087c-0.676,1.812-1.276,3.417-1.9,5.087H10.083z"/>
	<path d="M8.199,8.896c-0.858,0-1.716,0.026-2.574-0.007c-0.721-0.028-0.885-0.337-0.482-0.92C5.92,6.839,6.725,5.729,7.535,4.623
		C7.93,4.083,8.4,4.068,8.801,4.601c0.839,1.12,1.664,2.252,2.458,3.404c0.363,0.528,0.176,0.859-0.485,0.882
		C9.916,8.917,9.058,8.896,8.199,8.896"/>
</g>
</svg>
