<?xml version="1.0" encoding="utf-8"?>
<!-- Generator: Adobe Illustrator 16.0.0, SVG Export Plug-In . SVG Version: 6.00 Build 0)  -->
<!DOCTYPE svg PUBLIC "-//W3C//DTD SVG 1.1//EN" "http://www.w3.org/Graphics/SVG/1.1/DTD/svg11.dtd">
<svg version="1.1" id="Layer_1" xmlns="http://www.w3.org/2000/svg" xmlns:xlink="http://www.w3.org/1999/xlink" x="0px" y="0px"
	 width="8.038px" height="7.183px" viewBox="0 0 8.038 7.183" enable-background="new 0 0 8.038 7.183" xml:space="preserve">
<path fill="#010101" d="M3.052,4.816c1.082-1.431,2.133-2.819,3.184-4.207c0.092-0.122,0.182-0.25,0.289-0.355
	c0.312-0.3,0.764-0.335,1.113-0.1C8.005,0.399,8.14,0.85,7.955,1.259c-0.068,0.15-0.162,0.292-0.262,0.424
	C6.437,3.336,5.179,4.989,3.919,6.639C3.37,7.36,2.781,7.365,2.222,6.654C1.574,5.835,0.929,5.013,0.286,4.188
	c-0.398-0.511-0.378-1.029,0.042-1.369c0.436-0.354,0.953-0.253,1.371,0.275C2.14,3.65,2.576,4.208,3.052,4.816"/>
</svg>
