<?xml version="1.0" encoding="utf-8"?>
<!-- Generator: Adobe Illustrator 16.0.0, SVG Export Plug-In . SVG Version: 6.00 Build 0)  -->
<!DOCTYPE svg PUBLIC "-//W3C//DTD SVG 1.1//EN" "http://www.w3.org/Graphics/SVG/1.1/DTD/svg11.dtd">
<svg version="1.1" id="Layer_1" xmlns="http://www.w3.org/2000/svg" xmlns:xlink="http://www.w3.org/1999/xlink" x="0px" y="0px"
	 width="16.6px" height="21.554px" viewBox="0 0 16.6 21.554" enable-background="new 0 0 16.6 21.554" xml:space="preserve">
<path fill="#010101" d="M15.408,21.526c-0.147-0.188-0.494-0.478-0.646-0.849c-0.667-1.671-1.294-3.355-1.899-5.051
	c-0.166-0.465-0.375-0.664-0.904-0.659C9.523,15,7.09,14.996,4.657,14.971c-0.481-0.005-0.707,0.144-0.869,0.596
	c-0.607,1.691-1.267,3.365-1.879,5.058c-0.234,0.643-0.59,1.121-1.318,0.854c-0.734-0.271-0.665-0.87-0.425-1.503
	C2.542,13.667,4.902,7.361,7.27,1.054C7.459,0.549,7.61-0.009,8.327,0c0.717,0.01,0.855,0.573,1.044,1.077
	C11.74,7.384,14.103,13.692,16.466,20C16.814,20.932,16.488,21.562,15.408,21.526 M8.311,3.526
	c-1.229,3.292-2.388,6.396-3.568,9.558h7.152C10.703,9.905,9.545,6.815,8.311,3.526"/>
</svg>
