<svg id="Instagram-black_1" data-name="Instagram-black 1" xmlns="http://www.w3.org/2000/svg" xmlns:xlink="http://www.w3.org/1999/xlink" width="30" height="30" viewBox="0 0 30 30">
  <defs>
    <clipPath id="clip-path">
      <rect id="Instagram-black_1_Background_Mask_" data-name="Instagram-black 1 (Background/Mask)" width="30" height="30" fill="none"/>
    </clipPath>
  </defs>
  <rect id="Instagram-black_1_Background_Mask_2" data-name="Instagram-black 1 (Background/Mask)" width="30" height="30" fill="none"/>
  <g id="Instagram-black_1-2" data-name="Instagram-black 1" clip-path="url(#clip-path)">
    <g id="Icons">
      <g id="Black">
        <path id="Instagram" d="M15,30c-4.055,0-4.586-.017-6.185-.09a11.085,11.085,0,0,1-3.641-.7,7.35,7.35,0,0,1-2.657-1.73,7.36,7.36,0,0,1-1.73-2.657,11.085,11.085,0,0,1-.7-3.641C.017,19.587,0,19.055,0,15s.017-4.586.09-6.185a11.085,11.085,0,0,1,.7-3.641,7.36,7.36,0,0,1,1.73-2.657A7.36,7.36,0,0,1,5.174.788,11.085,11.085,0,0,1,8.816.09C10.414.017,10.945,0,15,0s4.586.017,6.184.09a11.085,11.085,0,0,1,3.641.7,7.36,7.36,0,0,1,2.657,1.73,7.35,7.35,0,0,1,1.73,2.657,11.085,11.085,0,0,1,.7,3.641c.073,1.6.09,2.13.09,6.185s-.017,4.586-.09,6.184a11.085,11.085,0,0,1-.7,3.641,7.667,7.667,0,0,1-4.387,4.387,11.085,11.085,0,0,1-3.641.7C19.587,29.983,19.055,30,15,30ZM15,2.7c-4,0-4.479.015-6.062.087a8.3,8.3,0,0,0-2.785.517A4.643,4.643,0,0,0,4.429,4.429,4.643,4.643,0,0,0,3.307,6.153,8.3,8.3,0,0,0,2.79,8.939C2.718,10.521,2.7,11,2.7,15s.015,4.478.087,6.061a8.3,8.3,0,0,0,.517,2.786,4.654,4.654,0,0,0,1.122,1.725,4.642,4.642,0,0,0,1.724,1.121,8.267,8.267,0,0,0,2.785.517C10.521,27.282,11,27.3,15,27.3s4.478-.015,6.061-.087a8.267,8.267,0,0,0,2.786-.517,4.958,4.958,0,0,0,2.847-2.847,8.267,8.267,0,0,0,.517-2.786C27.282,19.479,27.3,19,27.3,15s-.015-4.479-.087-6.062a8.267,8.267,0,0,0-.517-2.785,4.642,4.642,0,0,0-1.121-1.724,4.654,4.654,0,0,0-1.725-1.122,8.3,8.3,0,0,0-2.786-.517C19.479,2.718,19,2.7,15,2.7Zm0,20A7.7,7.7,0,1,1,22.7,15,7.711,7.711,0,0,1,15,22.7ZM15,10a5,5,0,1,0,5,5A5.006,5.006,0,0,0,15,10Zm8.006-1.207a1.8,1.8,0,1,1,1.8-1.8A1.8,1.8,0,0,1,23.007,8.793Z"/>
      </g>
    </g>
  </g>
</svg>
