<?xml version="1.0" encoding="utf-8"?>
<!-- Generator: Adobe Illustrator 16.0.0, SVG Export Plug-In . SVG Version: 6.00 Build 0)  -->
<!DOCTYPE svg PUBLIC "-//W3C//DTD SVG 1.1//EN" "http://www.w3.org/Graphics/SVG/1.1/DTD/svg11.dtd">
<svg version="1.1" id="Layer_1" xmlns="http://www.w3.org/2000/svg" xmlns:xlink="http://www.w3.org/1999/xlink" x="0px" y="0px"
	 width="20px" height="20px" viewBox="0 0 20 20" enable-background="new 0 0 20 20" xml:space="preserve">
<path fill-rule="evenodd" clip-rule="evenodd" fill="#262626" d="M4.892,9.994c0-2.818,2.285-5.113,5.103-5.113
	c2.826,0,5.111,2.295,5.111,5.113c0,2.824-2.285,5.11-5.111,5.11C7.177,15.104,4.892,12.818,4.892,9.994 M15.271,0H4.728
	C2.131,0,0,2.119,0,4.725v10.548c0,2.594,2.131,4.726,4.728,4.726h10.544c2.607,0,4.729-2.132,4.729-4.726V4.725
	C20,2.119,17.879,0,15.271,0 M4.728,1.183h10.544c1.955,0,3.546,1.588,3.546,3.542v10.548c0,1.954-1.591,3.543-3.546,3.543H4.728
	c-1.956,0-3.547-1.589-3.547-3.543V4.725C1.181,2.771,2.772,1.183,4.728,1.183 M16.321,2.673c-0.574,0-1.039,0.464-1.039,1.038
	s0.465,1.037,1.039,1.037s1.038-0.462,1.038-1.037S16.896,2.673,16.321,2.673 M16.442,9.994c0-3.556-2.881-6.45-6.448-6.45
	c-3.558,0-6.45,2.895-6.45,6.45c0,3.565,2.893,6.449,6.45,6.449C13.562,16.443,16.442,13.56,16.442,9.994"/>
</svg>
