<?xml version="1.0" encoding="utf-8"?>
<!-- Generator: Adobe Illustrator 16.0.0, SVG Export Plug-In . SVG Version: 6.00 Build 0)  -->
<!DOCTYPE svg PUBLIC "-//W3C//DTD SVG 1.1//EN" "http://www.w3.org/Graphics/SVG/1.1/DTD/svg11.dtd">
<svg version="1.1" id="Layer_1" xmlns="http://www.w3.org/2000/svg" xmlns:xlink="http://www.w3.org/1999/xlink" x="0px" y="0px"
	 width="52.713px" height="59.17px" viewBox="0 0 52.713 59.17" enable-background="new 0 0 52.713 59.17" xml:space="preserve">
<g>
	<path fill="#DEDC2A" d="M19.422,25.876c1.555,2.475,4.289,4.132,7.428,4.132c3.176,0,5.933-1.701,7.478-4.227
		c0.215-0.207,0.522-0.91,0.552-1.015c0.48-1.087,0.762-2.284,0.762-3.549c0-2.041-0.728-3.896-1.894-5.388
		C31.81,12.207,28.569,8.033,26.22,0c-3.479,10.977-7.097,14.614-7.86,19.06c-0.178,0.693-0.301,1.41-0.301,2.158
		c0,1.314,0.309,2.55,0.826,3.668C18.969,25.176,19.263,25.826,19.422,25.876"/>
	<path fill="#DEDC2A" d="M26.431,49.992C20.642,38.296,9.822,31.239,0.014,32.533c-0.448,13.333,10.44,26.825,26.38,26.635
		c17.75-0.214,26.742-14.765,26.304-27.121C40.499,33.205,31.06,37.923,26.431,49.992"/>
</g>
</svg>
