<?xml version="1.0" encoding="utf-8"?>
<!-- Generator: Adobe Illustrator 25.1.0, SVG Export Plug-In . SVG Version: 6.00 Build 0)  -->
<svg version="1.1"
	 id="Layer_1" xmlns:cc="http://creativecommons.org/ns#" xmlns:dc="http://purl.org/dc/elements/1.1/" xmlns:inkscape="http://www.inkscape.org/namespaces/inkscape" xmlns:rdf="http://www.w3.org/1999/02/22-rdf-syntax-ns#" xmlns:sodipodi="http://sodipodi.sourceforge.net/DTD/sodipodi-0.dtd" xmlns:svg="http://www.w3.org/2000/svg"
	 xmlns="http://www.w3.org/2000/svg" xmlns:xlink="http://www.w3.org/1999/xlink" x="0px" y="0px" viewBox="0 0 100 103"
	 style="enable-background:new 0 0 100 103;" xml:space="preserve">
<g transform="translate(0,-952.36218)">
	<path d="M8,962.4c-1.1,0-2,0.9-2,2s0.9,2,2,2h10.4l10.5,49.8c-0.1,1.1,1,2.2,2.1,2.2h50c1.1,0,2-0.9,2-2c0-1.1-1-2-2-2H32.6l-1.7-8
		H85c0.9,0,1.7-0.7,1.9-1.6l7-30c0.3-1.2-0.7-2.4-1.9-2.4H23.8l-1.8-8.4c-0.2-0.9-1.1-1.6-2-1.6L8,962.4z M24.6,976.4h64.9l-6.1,26
		H30.1L24.6,976.4z M42,1024.4c-4.9,0-9,4.1-9,9s4.1,9,9,9c4.9,0,9-4.1,9-9S47,1024.4,42,1024.4z M70,1024.4c-4.9,0-9,4.1-9,9
		s4.1,9,9,9c4.9,0,9-4.1,9-9S75,1024.4,70,1024.4z M42,1028.4c2.8,0,5,2.2,5,5s-2.2,5-5,5c-2.8,0-5-2.2-5-5S39.2,1028.4,42,1028.4z
		 M70,1028.4c2.8,0,5,2.2,5,5s-2.2,5-5,5c-2.8,0-5-2.2-5-5S67.2,1028.4,70,1028.4z"/>
</g>
</svg>
