<?xml version="1.0" encoding="utf-8"?>
<!-- Generator: Adobe Illustrator 27.1.1, SVG Export Plug-In . SVG Version: 6.00 Build 0)  -->
<svg version="1.1" id="Layer_1" xmlns="http://www.w3.org/2000/svg" xmlns:xlink="http://www.w3.org/1999/xlink" x="0px" y="0px"
	 width="1200px" height="1200px" viewBox="0 0 1200 1200" style="enable-background:new 0 0 1200 1200;" xml:space="preserve">
<style type="text/css">
	.st0{stroke:#FFFFFF;stroke-width:12;stroke-miterlimit:10;}
</style>
<g>
	<path class="st0" d="M989,261c12.5,0,25.5-5,34.9-14.5c19.6-19.5,19.6-51.5,0-71c-19.4-19.5-50.9-19.5-70.5,0
		c-19.5,19.5-19.5,51.5,0,71C963.5,256,976,261,989,261z"/>
	<path class="st0" d="M1108.5,439.5c6,0,12.5-1.5,19-4c25.5-10.5,37.5-40,27-65.5s-40-37.5-65.5-27c-25.6,10.5-37.5,40-27,65.5
		C1069.9,428,1088.5,439.5,1108.5,439.5z"/>
	<path class="st0" d="M600,200c-27.6,0-50,22.4-50,50v350c0,18.9,10.7,36.2,27.6,44.8l200,100c7.2,3.6,14.8,5.2,22.3,5.2l0,0
		c18.4,0,36-10.1,44.8-27.6c12.3-24.7,2.3-54.8-22.4-67.1L650,569.1V250C650,222.4,627.6,200,600,200z"/>
	<path class="st0" d="M1190.9,571.2c-1.6-2.4-3.4-4.6-5.4-6.7c-2.9-2.9-6.1-5.3-9.5-7.2c0,0-0.1,0-0.1-0.1c0,0,0,0-0.1,0
		c-7.5-4.5-16.4-7.2-25.8-7.2c-10.6,0-20.5,3.3-28.6,9c-2.4,1.6-4.8,3.4-6.9,5.5c-2.2,2.3-4.1,4.7-5.8,7.4c-0.1,0.1-0.2,0.2-0.2,0.3
		c0,0,0,0,0,0.1c-5.3,7.9-8.4,17.5-8.4,27.7c0,275.7-224.3,500-500,500S100,875.7,100,600s224.3-500,500-500
		c10.6,0,20.3-3.3,28.4-8.9c2.5-1.7,4.9-3.6,7.1-5.6c2.1-2.2,4-4.6,5.6-7.1c5.6-8.1,8.9-17.9,8.9-28.4s-3.3-20.3-8.9-28.4
		c-1.7-2.5-3.6-4.9-5.6-7.1c-3-3-6.3-5.5-10-7.5c-7.5-4.5-16.2-7-25.5-7C269.2,0,0,269.2,0,600s269.2,600,600,600s600-269.2,600-600
		C1200,589.3,1196.6,579.3,1190.9,571.2z"/>
	<path class="st0" d="M791.5,138c6,2.5,12.5,3.5,19,3.5c19.5,0,38.5-11.5,46-30.5c11-25.5-1-55-26.5-65.5c-26-10.5-55,1.5-65.5,27
		S765.9,127.5,791.5,138z"/>
</g>
</svg>
