<?xml version="1.0" encoding="UTF-8"?>
<svg width="1200pt" height="1200pt" version="1.1" viewBox="0 0 1200 1200" xmlns="http://www.w3.org/2000/svg">
 <path d="m638.12 604.79 157.67-157.67c13.035-13.035 13.035-34.133 0-47.168-13-13-34.102-13-47.133 0l-157.67 157.7-157.7-157.7c-13-13-34.102-13-47.133 0-13 13.035-13 34.133 0 47.168l157.7 157.67-157.7 157.66c-13 13.035-13 34.133 0 47.168 6.5312 6.5 15.066 9.7344 23.566 9.7344 8.5352 0 17.066-3.2344 23.566-9.7344l157.7-157.7 157.67 157.7c6.5312 6.5 15.066 9.7344 23.566 9.7344 8.5352 0 17.066-3.2344 23.566-9.7344 13.035-13.035 13.035-34.133 0-47.168zm-45.863-591.43c-326.67 0-591.47 264.8-591.47 591.43 0 326.66 264.8 591.43 591.47 591.43 326.63 0 591.43-264.77 591.43-591.43 0-326.64-264.8-591.43-591.43-591.43zm0 66.664c289.33 0 524.77 235.4 524.77 524.77 0 289.36-235.43 524.77-524.77 524.77-289.37 0-524.8-235.4-524.8-524.77 0-289.37 235.43-524.77 524.8-524.77z" fill-rule="evenodd"/>
</svg>
