<?xml version="1.0" encoding="UTF-8"?>
<svg width="1200pt" height="1200pt" version="1.1" viewBox="0 0 1200 1200" xmlns="http://www.w3.org/2000/svg">
 <path d="m1127.3 355.14c-0.054688-1.0156-0.12891-1.9922-0.29688-3.0078-0.16797-0.90625-0.40625-1.7891-0.64453-2.6758-0.23828-0.83203-0.46094-1.6602-0.77344-2.4727-0.38672-0.99609-0.86719-1.9375-1.3477-2.8789-0.25781-0.48047-0.38672-0.97656-0.68359-1.457l-175.59-293.79c-0.10937-0.20313-0.27734-0.35156-0.38672-0.53516-0.55469-0.88672-1.1992-1.6992-1.8828-2.5273-0.5-0.64453-0.99609-1.293-1.5312-1.8828-0.62891-0.64453-1.3125-1.1797-1.9766-1.7734-0.70312-0.58984-1.3672-1.2188-2.1055-1.7344-0.72266-0.46484-1.4766-0.85156-2.2148-1.2773-0.79297-0.44141-1.5703-0.94141-2.418-1.3125-0.79297-0.35156-1.625-0.58984-2.457-0.86719-0.86719-0.29688-1.7344-0.60938-2.6406-0.8125-0.79297-0.18359-1.6055-0.25781-2.4375-0.37109-1.0156-0.14844-1.9922-0.27734-3.0273-0.3125-0.23828 0-0.46094-0.074219-0.70313-0.074219l-226.23 0.003906h-422.12c-0.23828 0-0.48047 0.054687-0.71875 0.074219-1.0156 0.019531-1.9922 0.16797-3.0078 0.3125-0.83203 0.10938-1.6602 0.18359-2.457 0.37109-0.88672 0.20312-1.7539 0.51562-2.6211 0.8125-0.8125 0.27734-1.6602 0.51562-2.457 0.86719-0.84766 0.38672-1.625 0.86719-2.4375 1.3281-0.73828 0.40625-1.4961 0.79297-2.1797 1.2734-0.75781 0.53516-1.457 1.1641-2.1602 1.7891-0.64453 0.57422-1.3125 1.1094-1.9219 1.7188-0.57422 0.60938-1.0898 1.293-1.6055 1.957-0.62891 0.77344-1.2539 1.5508-1.7891 2.418-0.12891 0.20312-0.29688 0.37109-0.42578 0.57422l-175.57 293.78c-0.29688 0.5-0.46094 1.0352-0.71875 1.5312-0.46094 0.90625-0.92188 1.8281-1.293 2.7891-0.33203 0.83203-0.55469 1.6797-0.77344 2.5273-0.23828 0.86719-0.48047 1.7344-0.64453 2.6406-0.16797 0.99609-0.23828 1.9922-0.3125 2.9922-0.042968 0.57422-0.17187 1.125-0.17187 1.7188v780.05c0 15.285 12.387 27.691 27.691 27.691h999.51c15.285 0 27.691-12.406 27.691-27.691v-780.05c0-0.59375-0.12891-1.1289-0.16406-1.7188zm-218.81-264.37 142.48 238.39h-325.33v-238.39zm-238.23 0v238.39h-140.46v-238.39zm-140.47 293.78h140.46v191.15h-140.46zm-238.23-293.78h182.86v238.39h-325.35zm780.52 1018.5h-944.12v-724.67h346.47v218.84c0 15.285 12.387 27.691 27.691 27.691h195.84c15.285 0 27.691-12.406 27.691-27.691v-218.84h346.43z"/>
</svg>
