<svg width="65" height="65" viewBox="0 0 65 65" fill="none" xmlns="http://www.w3.org/2000/svg">
<path d="M44.6127 3.19438L62.0019 20.5836C62.3792 20.9604 62.6786 21.4078 62.8828 21.9004C63.0871 22.393 63.1922 22.921 63.1922 23.4542C63.1922 23.9874 63.0871 24.5154 62.8828 25.008C62.6786 25.5005 62.3792 25.948 62.0019 26.3248L38.4504 49.879L15.3281 26.7568L38.8634 3.19438C39.2403 2.81582 39.6883 2.51544 40.1816 2.31048C40.6749 2.10551 41.2038 2 41.738 2C42.2722 2 42.8012 2.10551 43.2945 2.31048C43.7878 2.51544 44.2358 2.81582 44.6127 3.19438V3.19438Z" stroke="#DEDC00" stroke-width="3" stroke-linejoin="round"/>
<path d="M8.70379 26.7459C9.58005 25.8707 10.7679 25.3791 12.0064 25.3791C13.2449 25.3791 14.4327 25.8707 15.309 26.7459L38.4312 49.8682C39.3082 50.7433 39.8016 51.9311 39.8029 53.17C39.8042 54.409 39.3132 55.5977 38.438 56.4747C37.5628 57.3517 36.3751 57.8451 35.1361 57.8464C33.8972 57.8477 32.7084 57.3567 31.8315 56.4815L8.70379 33.3538C8.26968 32.9201 7.92531 32.405 7.69036 31.8381C7.45541 31.2712 7.33447 30.6635 7.33447 30.0499C7.33447 29.4362 7.45541 28.8286 7.69036 28.2616C7.92531 27.6947 8.26968 27.1797 8.70379 26.7459V26.7459Z" stroke="#DEDC00" stroke-width="3" stroke-linejoin="round"/>
<path d="M28.5303 26.7459L21.9224 20.1407" stroke="#DEDC00" stroke-width="3" stroke-linejoin="round"/>
<path d="M35.136 20.1407L28.5308 13.5355" stroke="#DEDC00" stroke-width="3" stroke-linejoin="round"/>
<path d="M9.26093 33.9027L8.1415 36.1443C7.04194 38.3446 6.66175 40.8348 7.05467 43.263C7.31053 45.0578 7.14519 46.8875 6.57175 48.6073C5.9983 50.3272 5.03249 51.89 3.75072 53.1721C3.19982 53.7124 2.76146 54.3564 2.46098 55.0671C2.16049 55.7778 2.00384 56.5409 2.00007 57.3125C1.9963 58.0841 2.1455 58.8488 2.43903 59.5623C2.73256 60.2759 3.1646 60.9242 3.7102 61.4698C4.25579 62.0154 4.90411 62.4475 5.61768 62.741C6.33125 63.0345 7.09592 63.1837 7.86749 63.1799C8.63907 63.1762 9.40224 63.0195 10.1129 62.719C10.8236 62.4185 11.4676 61.9802 12.0079 61.4293C13.29 60.1475 14.8528 59.1817 16.5727 58.6083C18.2925 58.0348 20.1222 57.8695 21.917 58.1253C24.3452 58.5183 26.8354 58.1381 29.0357 57.0385L31.2773 55.9191" stroke="#DEDC00" stroke-width="3" stroke-linejoin="round"/>
</svg>
