<?xml version="1.0" encoding="utf-8"?>
<!-- Generator: Adobe Illustrator 16.0.0, SVG Export Plug-In . SVG Version: 6.00 Build 0)  -->
<!DOCTYPE svg PUBLIC "-//W3C//DTD SVG 1.1//EN" "http://www.w3.org/Graphics/SVG/1.1/DTD/svg11.dtd">
<svg version="1.1" id="Layer_1" xmlns="http://www.w3.org/2000/svg" xmlns:xlink="http://www.w3.org/1999/xlink" x="0px" y="0px"
	 width="30px" height="30px" viewBox="0 0 30 30" enable-background="new 0 0 30 30" xml:space="preserve">
<path d="M3.174,25.623L2.843,22.41c-0.023-0.221-0.521-5.467,2.955-9.343c2.152-2.398,5.316-3.713,9.418-3.912
	c0.102-0.006,0.187-0.089,0.188-0.193l0.035-4.389c0.002-0.161,0.185-0.254,0.315-0.158l11.358,8.283
	c0.108,0.077,0.109,0.239,0.003,0.319l-11.37,8.46c-0.131,0.098-0.316,0.006-0.316-0.158v-4.779
	c-0.169-0.006-0.365-0.012-0.584-0.012c-6.827,0-9.458,3.832-10.418,6.116L3.174,25.623z M17.38,7.647
	c-0.13-0.094-0.313-0.002-0.315,0.159l-0.023,2.971l-0.815,0.005c-4.104,0.021-7.199,1.162-9.197,3.39
	c-1.16,1.293-1.804,2.79-2.156,4.139c-0.053,0.202,0.191,0.33,0.337,0.182c3.136-3.195,7.55-3.615,9.636-3.615
	c0.913,0,1.495,0.076,1.519,0.079l0.72,0.095v2.979c0,0.162,0.185,0.256,0.315,0.158l6.929-5.158c0.108-0.08,0.107-0.24-0.001-0.319
	L17.38,7.647z"/>
</svg>
