<?xml version="1.0" encoding="utf-8"?>
<!-- Generator: Adobe Illustrator 16.0.0, SVG Export Plug-In . SVG Version: 6.00 Build 0)  -->
<!DOCTYPE svg PUBLIC "-//W3C//DTD SVG 1.1//EN" "http://www.w3.org/Graphics/SVG/1.1/DTD/svg11.dtd">
<svg version="1.1" id="Layer_1" xmlns="http://www.w3.org/2000/svg" xmlns:xlink="http://www.w3.org/1999/xlink" x="0px" y="0px"
	 width="336.685px" height="116.574px" viewBox="0 0 336.685 116.574" enable-background="new 0 0 336.685 116.574"
	 xml:space="preserve">
<path d="M14.694,66.128c0.423-1.5,1.026-2.976,1.231-4.503c0.415-3.086,0.593-6.204,0.918-9.303c0.07-0.662,0.425-1.292,0.516-1.955
	c0.495-3.581,0.927-7.171,1.428-10.751c0.173-1.233,0.465-2.45,0.732-3.669c0.674-3.071,1.351-6.143,2.053-9.208
	c0.652-2.851,1.31-5.699,2.028-8.533c0.163-0.645,0.436-1.413,0.919-1.789c0.751-0.584,1.774-1.275,2.591-1.177
	c0.705,0.085,1.503,1.108,1.863,1.897c0.407,0.888,0.5,1.978,0.504,2.98c0.035,8.211-0.098,16.426,0.075,24.633
	c0.066,3.078,0.851,6.137,1.229,9.214c0.248,2.024,0.561,4.074,0.481,6.097c-0.16,4.024,0.696,7.876,1.514,11.755
	c0.197,0.938,0.221,1.912,0.408,2.854c0.062,0.312,0.388,0.572,0.593,0.855c0.229-0.272,0.629-0.526,0.659-0.818
	c0.307-2.915,0.333-5.878,0.869-8.746c0.723-3.869,0.358-7.876,2.032-11.65c1.365-3.076,1.938-6.494,3.099-9.675
	c0.388-1.062,1.402-1.987,2.323-2.74c1.115-0.909,2.114-0.392,2.851,0.729c1.665,2.535,2.376,5.388,2.66,8.347
	c0.141,1.47-0.099,2.976,0.048,4.443c0.404,4.046,0.897,8.083,1.426,12.114c0.067,0.514,0.462,1.068,0.859,1.441
	c2.366,2.225,2.487,5.313,2.861,8.156c0.173,1.314-0.834,2.883-1.568,4.189c-0.508,0.9-1.419,1.056-2.511,0.416
	c-2.214-1.298-2.642-3.492-3.055-5.658c-0.938-4.928-1.655-9.898-2.655-14.813c-0.614-3.025-1.064-6.027-0.881-9.117
	c0.023-0.385-0.222-0.785-0.726-1.188c-0.139,0.321-0.342,0.63-0.402,0.964c-0.435,2.389-0.841,4.782-1.254,7.174
	c-0.058,0.335-0.146,0.67-0.158,1.007c-0.125,3.407-0.079,6.83-0.402,10.218c-0.279,2.914-0.974,5.791-1.493,8.684
	c-0.318,1.771-0.735,3.53-0.96,5.313c-0.236,1.873-1.465,2.875-3.063,2.831c-0.926-0.024-2.259-1.009-2.648-1.894
	c-1.246-2.842-2.1-5.854-3.175-8.775c-1.249-3.397-1.334-6.969-1.717-10.503c-0.219-2.011-0.675-3.995-0.98-5.998
	c-0.195-1.289-0.409-2.587-0.442-3.886c-0.199-7.79-0.345-15.581-0.515-23.372c-0.005-0.204-0.077-0.406-0.117-0.608
	c-0.151-0.012-0.301-0.023-0.451-0.034c-0.306,2.342-0.623,4.681-0.914,7.024c-0.354,2.846-0.731,5.69-1.006,8.544
	c-0.132,1.356,0.278,2.841-0.127,4.081c-1.551,4.753-1.084,9.784-2.232,14.563c-0.429,1.789-1.284,3.515-2.175,5.144
	c-0.957,1.75-3.247,2.005-4.891,0.697c-0.575-0.457-1.094-1.001-1.572-1.562c-0.427-0.5-0.763-1.076-1.139-1.619
	c-0.199,0.047-0.397,0.094-0.596,0.14c0.185,1.447,0.356,2.895,0.557,4.34c0.436,3.125,1.054,6.235,1.29,9.374
	c0.315,4.188,0.168,8.413,0.54,12.594c0.327,3.674,1.478,7.299,1.554,10.962c0.065,3.121,0.153,6.508-2.088,9.23
	c-1.06,1.286-2.101,1.265-2.982-0.189c-1.148-1.895-1.774-3.893-1.234-6.181c0.243-1.031,0.125-2.153,0.127-3.235
	c0.008-5.359,0.185-10.729-0.054-16.077c-0.23-5.188-0.909-10.355-1.35-15.534c-0.096-1.132,0.008-2.28-0.021-3.419
	c-0.122-4.721-0.133-9.448-0.435-14.157c-0.209-3.255-0.846-6.483-1.26-9.728c-0.23-1.797-0.463-3.598-0.575-5.404
	c-0.232-3.73-0.326-7.469-0.596-11.196c-0.106-1.461-0.586-2.891-0.808-4.349c-0.237-1.555-0.439-3.119-0.54-4.688
	C1.446,16.447,1.437,11.427,0.772,6.493c-0.269-2,0.538-3.358,1.118-4.917c0.569-1.527,1.963-1.842,3.423-1.508
	c1.378,0.313,1.845,1.434,1.905,2.714C7.276,3.977,7.21,5.177,7.241,6.374c0.175,6.868,0.174,13.747,0.607,20.6
	c0.32,5.061,1.227,10.082,1.839,15.125c0.192,1.576,0.2,3.175,0.426,4.744c0.498,3.462,0.978,6.933,1.661,10.362
	c0.598,3.004,1.462,5.955,2.208,8.93L14.694,66.128z"/>
<path d="M313.701,59.867c0.761,0.459,0.943,0.665,1.133,0.671c4.713,0.167,9.442,0.453,14.059-0.798
	c0.759-0.206,1.36-1.013,2.011-1.572c0.161-0.139,0.225-0.391,0.333-0.593c1.211-2.261,2.205-2.863,3.551-2.15
	c2.368,1.253,3.268,3.478,2.124,5.494c-0.436,0.771-0.975,1.693-1.711,2.054c-4.304,2.105-8.778,3.788-13.651,3.84
	c-3.941,0.042-7.903,0.076-11.823-0.263c-4.156-0.358-7.216,1.539-10.126,4.03c-4.104,3.512-8.315,6.909-12.249,10.602
	c-3.316,3.111-6.304,6.572-9.432,9.885c-0.232,0.247-0.377,0.589-0.633,0.802c-1.954,1.623-3.001,3.703-3.632,6.16
	c-0.673,2.616-3.93,3.716-6.041,2.265c-1.455-0.999-1.92-2.217-0.885-3.636c2.543-3.489,5.149-6.95,7.981-10.204
	c2.757-3.167,5.707-6.188,8.787-9.043c3.619-3.355,7.469-6.463,11.22-9.676c0.433-0.371,0.94-0.675,1.298-1.106
	c0.812-0.982,0.387-2.13-0.873-2.222c-3.335-0.246-6.677-0.422-10.019-0.57c-0.54-0.023-1.185,0.1-1.625,0.392
	c-2.878,1.908-6.083,2.313-9.442,2.424c-2.647,0.088-5.273,0.663-7.922,0.856c-1.631,0.12-3.293,0.026-4.925-0.14
	c-3.093-0.315-6.175-0.754-9.262-1.134c-0.225-0.028-0.458-0.012-0.685,0.01c-3.563,0.336-4.947-1.023-5.262-4.667
	c-0.487-5.684-1.312-11.341-1.684-17.029c-0.128-1.957-1.137-3.987-0.086-5.944c0.35-0.653,0.922-1.523,1.506-1.621
	c0.568-0.096,1.422,0.544,1.907,1.081c2.506,2.775,2.555,6.314,2.872,9.757c0.083,0.902-0.02,1.85,0.228,2.701
	c0.521,1.783,1.282,2.021,3.053,1.318c3.433-1.362,6.839-2.817,10.346-3.956c2.138-0.693,4.441-0.882,6.676-1.271
	c2.055-0.359,4.153-1.092,6.165-0.912c2.003,0.18,4.046,1.065,5.841,2.058c1.646,0.909,1.324,2.698-0.45,3.96
	c-2.151,1.531-2.119,1.543,0.111,2.997c3.223,2.104,6.835,3.012,10.564,3.604c2.965,0.47,5.932,0.93,8.896,1.404
	c2.653,0.427,4.708-0.845,6.717-2.303c2.117-1.535,4.191-3.147,6.425-4.494c1.489-0.897,3.18-1.65,4.871-1.949
	c0.828-0.146,2.029,0.723,2.769,1.436c0.895,0.865,0.287,1.913-0.524,2.494c-1.145,0.82-2.46,1.4-3.686,2.109
	C317.025,57.88,315.549,58.771,313.701,59.867 M266.595,61.345c3.463-0.228,7.03-0.431,10.592-0.732
	c0.463-0.04,1.292-0.811,1.262-0.865c-0.881-1.603-1.811-3.185-2.845-4.694c-0.165-0.24-0.874-0.209-1.311-0.149
	c-2.409,0.325-4.919,0.377-7.191,1.129c-3.687,1.221-7.442,1.445-11.235,1.627c-1.081,0.051-1.998,0.287-2.001,1.559
	c-0.003,1.209,0.913,1.407,1.902,1.464C259.333,60.891,262.9,61.117,266.595,61.345"/>
<path d="M196.247,57.352c1.736,2.677,4.191,3.119,6.204,4.186c3.058,1.62,6.252,2.987,9.389,4.458
	c0.307,0.144,0.638,0.398,0.934,0.369c3.15-0.304,5.676,1.491,8.432,2.485c1.73,0.623,2.321,1.697,1.825,2.939
	c-0.567,1.425-1.904,2.026-3.475,1.559c-3.318-0.991-6.744-1.725-9.926-3.046c-3.719-1.544-7.261-3.532-10.81-5.457
	c-2.714-1.473-5.234-3.205-6.721-6.104c-0.338-0.655-1.159-1.064-1.768-1.577c-1.636-1.376-1.895-2.731-1.061-4.707
	c0.365-0.864,0.606-1.818,0.703-2.753c0.32-3.1,2.059-5.52,3.767-7.927c3.401-4.796,8.217-7.988,13.148-10.932
	c3.677-2.195,7.908-2.995,12.028-4.098c4.883-1.308,9.123,0.516,13.315,2.263c2.439,1.017,3.563,3.757,4.227,6.169
	c1.06,3.853,1.518,7.869,2.362,11.787c0.146,0.684,0.827,1.455,1.469,1.787c1.202,0.623,2.743,1.207,2.545,2.617
	c-0.165,1.174-1.158,2.478-2.159,3.218c-1.025,0.759-1.382,1.467-1.369,2.649c0.043,4.163-0.263,8.351,0.096,12.482
	c0.346,3.975,1.06,7.978,2.176,11.803c0.665,2.276,2.483,3.92,5.117,4.778c4.666,1.518,9.131,0.249,13.659-0.297
	c0.637-0.076,1.292-0.852,1.739-1.45c1.16-1.549,2.607-2.073,3.95-1.276c1.533,0.911,1.82,2.337,1.093,4.146
	c-0.829,2.068-2.535,3.227-4.419,3.741c-3.65,1-7.411,2.186-11.134,2.209c-5.654,0.036-10.06-2.843-13.491-7.485
	c-2.608-3.53-2.917-7.634-4.025-11.577c-0.932-3.308-0.722-6.639-0.807-9.982c-0.031-1.287-0.41-2.569-0.411-3.854
	c-0.001-1.278,0.267-2.556,0.432-3.832c0.176-1.36-0.44-1.856-1.765-1.769c-4.702,0.312-9.408,0.586-14.112,0.872
	c-0.456,0.027-0.912,0.042-1.368,0.059c-4.722,0.163-9.448,0.253-14.163,0.525C200.083,56.436,198.318,56.961,196.247,57.352
	 M230.234,48.853c2.955-0.006,3.341-0.269,3.025-2.437c-0.291-2.006-0.739-3.989-1.15-5.978c-0.218-1.049-0.623-2.072-0.736-3.129
	c-0.278-2.586-2.684-5.447-5.265-5.471c-3.674-0.034-7.553-0.31-10.98,0.723c-5.393,1.624-10.854,3.664-14.916,7.874
	c-2.063,2.139-3.822,4.644-5.356,7.199c-1.401,2.333-0.388,3.822,2.331,3.677c5.258-0.283,10.507-0.723,15.761-1.09
	c1.871-0.131,3.747-0.212,5.617-0.365C222.456,49.539,226.343,49.188,230.234,48.853"/>
<path d="M134.279,87.897c-0.352-2.67-0.855-6.474-1.346-10.279c-0.071-0.562-0.095-1.134-0.097-1.701
	c-0.013-3.878,0.02-7.757-0.034-11.634c-0.021-1.697-0.725-2.213-2.113-1.483c-3.536,1.857-7.483,1.658-11.239,2.404
	c-0.609,0.121-1.228,0.331-1.831,0.305c-1.324-0.06-2.75,0.015-3.924-0.472c-0.769-0.316-1.627-1.536-1.602-2.324
	c0.025-0.752,1.005-1.837,1.804-2.131c1.783-0.656,3.707-0.96,5.591-1.319c2.171-0.415,4.357-0.748,6.543-1.095
	c1.34-0.211,2.696-0.324,4.025-0.582c1.661-0.321,2.558-1.207,2.436-3.094c-0.148-2.271,0.104-4.57-0.067-6.839
	c-0.305-4.047-0.174-8.089,0.492-12.052c0.354-2.105,1.507-4.115,2.52-6.053c0.582-1.116,1.771-1.006,2.322,0.047
	c0.515,0.977,0.614,2.183,0.817,3.302c0.066,0.368-0.158,0.779-0.168,1.172c-0.163,6.424-0.334,12.848-0.455,19.273
	c-0.041,2.209,0.374,2.53,2.369,1.72c3.207-1.302,6.384-2.687,9.532-4.126c1.813-0.829,4.212-0.243,5.104,1.555
	c0.255,0.513,0.179,1.352-0.053,1.913c-0.783,1.896-2.391,2.744-4.317,3.264c-3.603,0.973-7.159,2.115-10.751,3.121
	c-1.058,0.297-1.471,0.826-1.462,1.928c0.039,5.133-0.102,10.27,0.056,15.397c0.119,3.839,0.586,7.669,0.932,11.5
	c0.029,0.347,0.303,0.673,0.463,1.008c0.369-0.19,0.78-0.332,1.094-0.59c0.251-0.208,0.327-0.634,0.583-0.83
	c0.548-0.422,1.213-1.107,1.74-1.035c0.577,0.08,1.271,0.799,1.534,1.403c0.875,2.016-1.814,7.707-3.894,8.518
	c-1.604,0.625-2.889,0.205-3.931-1.107C135.348,94.958,134.282,91.783,134.279,87.897"/>
<path d="M74.766,62.53c-0.446-0.299-1.434-0.617-1.819-1.282c-1.518-2.609-2.742-5.354-2.801-8.475
	c-0.01-0.497-0.311-0.988-0.476-1.482c-0.478,0.328-1.215,0.555-1.392,1.003c-1.045,2.634-1.961,5.318-2.918,7.986
	c-0.246,0.687-0.489,1.375-0.726,2.065c-0.438,1.269-0.874,2.538-1.304,3.811c-0.144,0.432-0.239,0.881-0.401,1.305
	c-0.764,1.989-2.372,2.942-3.942,2.352c-1.438-0.542-1.972-2.28-1.431-4.253c1.537-5.614,3.037-11.238,4.533-16.863
	c0.84-3.159,1.598-6.34,2.492-9.482c0.26-0.904,0.891-1.7,1.314-2.563c0.574-1.171,1.354-2.062,2.788-1.699
	c1.48,0.374,2.05,1.634,2.155,2.965c0.07,0.86-0.271,1.779-0.552,2.632c-0.377,1.154-0.307,2.102,1.045,2.376
	c2.071,0.42,2.855,2.028,3.344,3.711c0.657,2.265,0.979,4.623,1.547,6.916c0.14,0.562,0.583,1.161,1.061,1.497
	c0.63,0.444,1.467,0.584,2.154,0.966c1.642,0.916,1.965,1.836,0.862,3.307C79.059,60.977,77.438,62.235,74.766,62.53"/>
<path d="M50.589,40.675c-1.674-0.629-3.475-1.051-4.972-1.968c-0.84-0.515-1.566-1.82-1.634-2.817
	c-0.071-1.063,2.345-2.381,3.552-2.053c1.796,0.487,3.633,1.016,5.248,1.898c0.928,0.505,1.452,1.745,2.159,2.654
	c-0.904,0.606-1.776,1.271-2.728,1.789c-0.418,0.228-0.997,0.158-1.504,0.223C50.671,40.493,50.63,40.584,50.589,40.675"/>
</svg>
