<?xml version="1.0" encoding="utf-8"?>
<!-- Generator: Adobe Illustrator 16.0.0, SVG Export Plug-In . SVG Version: 6.00 Build 0)  -->
<!DOCTYPE svg PUBLIC "-//W3C//DTD SVG 1.1//EN" "http://www.w3.org/Graphics/SVG/1.1/DTD/svg11.dtd">
<svg version="1.1" id="Layer_1" xmlns="http://www.w3.org/2000/svg" xmlns:xlink="http://www.w3.org/1999/xlink" x="0px" y="0px"
	 width="90px" height="50px" viewBox="0 0 90 50" enable-background="new 0 0 90 50" xml:space="preserve">
<g>
	<path d="M86.176,35.45c1.699,0.501,2.774,1.48,2.823,3.283c0.052,1.861-1.364,3.309-3.312,3.368
		c-1.293,0.039-2.591,0.033-3.884-0.007c-0.544-0.019-0.721,0.242-0.922,0.68c-1.197,2.594-3.231,4.023-6.101,4.01
		c-2.826-0.014-4.858-1.414-6.011-3.988c-0.271-0.604-0.609-0.705-1.187-0.705c-8.384,0.007-16.77-0.006-25.155-0.015
		c-0.061,0-0.124,0.009-0.186,0.002c-1.621-0.137-2.839-0.026-3.79,1.836c-1.156,2.256-3.517,3.112-6.091,2.81
		c-2.45-0.29-4.228-1.629-5.24-3.878c-0.274-0.61-0.583-0.813-1.228-0.797c-1.755,0.041-3.515,0.021-5.272,0.007
		c-1.892-0.012-3.189-1.033-3.531-2.75c-0.321-1.617,0.531-2.987,2.29-3.742c0.206-0.088,0.479-0.349,0.481-0.532
		c0.034-2.674,0.026-5.349,0.029-8.131c-1.387,0-2.673,0-3.958-0.003c-0.277,0-0.63,0.095-0.815-0.04
		c-0.354-0.256-0.849-0.653-0.838-0.977c0.011-0.307,0.575-0.814,0.93-0.847c1.192-0.11,2.4-0.047,3.604-0.049
		c0.328-0.002,0.658,0,1.034,0c0.002-1.615,0.002-3.11,0.004-4.726c-0.396,0-0.753,0-1.111-0.001
		c-5.396-0.004-10.79-0.009-16.186-0.015c-0.277,0-0.625,0.086-0.815-0.046c-0.319-0.222-0.769-0.614-0.738-0.886
		C1.04,18.973,1.458,18.55,1.81,18.41c0.402-0.16,0.911-0.054,1.372-0.053c5.241,0.004,10.482,0.01,15.723,0.016
		c0.276,0,0.55,0,0.913,0c0.001-1.882,0.002-3.711,0.003-5.694c-1.279-0.001-2.59,0.003-3.898-0.004
		c-0.731-0.004-1.651,0.141-1.668-0.938c-0.02-1.111,0.916-0.939,1.639-0.945c1.291-0.009,2.58-0.001,3.965,0
		c0.02-0.396,0.049-0.725,0.052-1.052c0.004-1.726-0.007-3.454,0.006-5.179c0.009-1.138,0.217-1.345,1.366-1.345
		c5.087-0.002,10.175,0.004,15.262,0.007c7.214,0.006,14.428,0.014,21.642,0.02c1.266,0.001,1.512,0.24,1.516,1.501
		c0.006,1.696-0.002,3.393,0.003,5.088c0.001,0.299,0.026,0.598,0.043,0.984c2.098,0.001,4.14,0.152,6.146-0.036
		c2.051-0.192,3.316,0.492,4.435,2.244c2.054,3.217,4.381,6.259,6.573,9.388c0.321,0.457,0.645,0.701,1.244,0.76
		c4.807,0.48,8.03,4.104,8.032,8.966C86.179,33.216,86.176,34.294,86.176,35.45 M57.679,35.402
		c0.008-10.111,0.016-20.167,0.025-30.225c-11.994-0.01-23.91-0.02-35.842-0.028c-0.001,1.887-0.002,3.719-0.006,5.644
		c2.179,0.002,4.297,0.004,6.418,0.006c3.145,0.003,6.289,0.007,9.434,0.007c0.646,0,1.117,0.249,1.109,0.945
		c-0.008,0.686-0.482,0.945-1.123,0.943c-0.124-0.001-0.247-0.002-0.37-0.003c-4.841-0.003-9.682-0.006-14.521-0.01
		c-0.324,0-0.648,0-0.926,0c-0.001,1.976-0.003,3.808-0.004,5.648c0.198,0.021,0.319,0.042,0.44,0.043
		c1.695,0.005,3.393-0.04,5.085,0.051c0.352,0.02,0.892,0.494,0.97,0.841c0.127,0.572-0.321,0.963-0.945,0.991
		c-0.522,0.024-1.047,0.009-1.57,0.008c-1.342,0-2.685-0.002-4.006-0.003c-0.002,1.646-0.003,3.146-0.004,4.731
		c0.484,0,0.912,0,1.339,0.002c3.731,0.001,7.46,0.003,11.192,0.009c0.276,0,0.62-0.072,0.813,0.061
		c0.32,0.217,0.71,0.556,0.75,0.881c0.034,0.271-0.351,0.659-0.64,0.876c-0.186,0.141-0.531,0.091-0.806,0.091
		c-3.854,0-7.708-0.007-11.562-0.011c-0.357,0-0.716,0-1.069,0c-0.001,2.905-0.005,5.689-0.007,8.522
		c2.014,0.001,3.954,0.029,5.892-0.015c0.419-0.01,0.903-0.178,1.234-0.434c2.477-1.906,5.732-1.93,8.243-0.061
		c0.383,0.286,0.925,0.498,1.395,0.5c6.073,0.038,12.146,0.032,18.222,0.034C57.108,35.448,57.378,35.419,57.679,35.402
		 M84.273,35.471c0.002-1.443,0.099-2.771-0.013-4.079c-0.322-3.775-3.106-6.312-6.873-6.342c-2.251-0.02-4.501-0.008-6.751-0.012
		c-2.281-0.001-4.563-0.007-6.843-0.007c-0.648,0.002-1.251-0.155-1.263-0.903c-0.039-2.527-0.026-5.057,0-7.584
		c0.004-0.569,0.363-0.915,0.959-0.9c0.595,0.018,0.892,0.37,0.898,0.954c0.011,0.771,0.006,1.541,0.004,2.312
		c0,1.376-0.001,2.752-0.002,4.134c3.593,0.003,7.049,0.006,10.521,0.008c-0.024-0.128-0.015-0.2-0.045-0.242
		c-2.276-3.222-4.543-6.448-6.854-9.645c-0.186-0.257-0.659-0.427-1.002-0.432c-2.188-0.04-4.377-0.024-6.565-0.02
		c-0.236,0-0.47,0.043-0.681,0.063c-0.007,7.581-0.013,15.088-0.019,22.597c0.154,0.034,0.241,0.07,0.327,0.07
		c3.206,0.008,6.413,0.026,9.618,0c0.322-0.004,0.688-0.212,0.959-0.421c2.553-1.972,5.845-1.956,8.375,0.045
		c0.227,0.179,0.522,0.376,0.791,0.384C81.26,35.487,82.707,35.471,84.273,35.471 M39.252,37.338
		c0.205,0.916,0.403,1.805,0.61,2.735c9.414,0.008,18.844,0.016,28.228,0.022c0.21-0.962,0.401-1.838,0.599-2.733
		C58.85,37.354,49.058,37.348,39.252,37.338 M28.417,40.081c-0.02,2.644,2.081,4.794,4.688,4.807
		c2.563,0.01,4.729-2.104,4.768-4.655c0.041-2.596-2.1-4.777-4.709-4.798C30.581,35.414,28.435,37.513,28.417,40.081 M74.823,35.471
		c-2.632,0.008-4.746,2.128-4.744,4.755c0.003,2.542,2.161,4.688,4.72,4.695c2.605,0.006,4.746-2.148,4.732-4.766
		C79.52,37.575,77.396,35.462,74.823,35.471 M27.023,37.307c-2.253,0-4.435-0.019-6.618,0.004c-0.863,0.008-1.432,0.582-1.458,1.355
		c-0.028,0.833,0.521,1.432,1.437,1.455c1.384,0.036,2.77,0.015,4.155,0.018c0.632,0.002,1.262,0.002,1.846,0.002
		C26.613,39.124,26.807,38.26,27.023,37.307 M80.938,37.349c0.174,0.84,0.281,1.572,0.493,2.27c0.07,0.23,0.403,0.53,0.627,0.541
		c1.199,0.054,2.4,0.047,3.602,0.016c0.886-0.022,1.428-0.563,1.449-1.353c0.021-0.819-0.552-1.443-1.447-1.463
		C84.095,37.328,82.524,37.349,80.938,37.349"/>
	<path d="M33.149,37.309c1.563,0.012,2.873,1.353,2.838,2.911c-0.036,1.518-1.364,2.808-2.87,2.792
		c-1.578-0.02-2.848-1.335-2.819-2.918C30.326,38.55,31.608,37.299,33.149,37.309 M33.32,39.073c-0.131,0-0.263,0-0.396,0
		c-0.248,0.363-0.721,0.751-0.681,1.077c0.042,0.345,0.564,0.859,0.892,0.872c0.296,0.011,0.823-0.537,0.859-0.879
		C34.029,39.815,33.565,39.433,33.32,39.073"/>
	<path d="M77.655,40.17c0.006,1.571-1.304,2.883-2.868,2.874c-1.517-0.009-2.813-1.308-2.827-2.833
		c-0.015-1.557,1.316-2.883,2.879-2.868C76.37,37.357,77.649,38.643,77.655,40.17 M74.553,41.255
		c0.139,0.007,0.276,0.012,0.415,0.017c0.266-0.344,0.754-0.709,0.729-1.032c-0.023-0.349-0.534-0.662-0.833-0.988
		c-0.323,0.298-0.849,0.56-0.911,0.906C73.895,40.476,74.332,40.885,74.553,41.255"/>
</g>
</svg>
