<?xml version="1.0" encoding="utf-8"?>
<!-- Generator: Adobe Illustrator 16.0.0, SVG Export Plug-In . SVG Version: 6.00 Build 0)  -->
<!DOCTYPE svg PUBLIC "-//W3C//DTD SVG 1.1//EN" "http://www.w3.org/Graphics/SVG/1.1/DTD/svg11.dtd">
<svg version="1.1" id="Layer_1" xmlns="http://www.w3.org/2000/svg" xmlns:xlink="http://www.w3.org/1999/xlink" x="0px" y="0px"
	 width="30px" height="30px" viewBox="0 0 30 30" enable-background="new 0 0 30 30" xml:space="preserve">
<path d="M18.089,15.064c1.751-0.92,3.005-2.589,3.423-4.591c0.751-3.591-1.672-7.096-5.26-7.847c-1.753-0.334-3.506,0-5.009,1.001
	C9.741,4.628,8.739,6.131,8.406,7.884c-0.334,1.753,0,3.506,1,5.008c0.668,0.919,1.502,1.67,2.421,2.172
	c-5.093,1.334-8.849,6.01-8.849,11.601c0,0.502,0.333,0.835,0.834,0.835h22.373c0.5,0,0.832-0.333,0.832-0.835
	C27.02,21.074,23.265,16.398,18.089,15.064 M10.825,11.891c-0.75-1.084-1-2.421-0.75-3.756c0.251-1.336,1-2.421,2.17-3.172
	C13.08,4.378,13.999,4.126,15,4.126c0.333,0,0.668,0,1.003,0.085c2.672,0.5,4.507,3.171,3.922,5.927
	c-0.416,2.002-1.92,3.505-3.922,3.922c-0.669,0.167-1.336,0.167-1.921,0C12.746,13.811,11.578,13.06,10.825,11.891 M4.649,25.83
	C5.066,20.488,9.574,16.315,15,16.315c5.427,0,9.935,4.173,10.352,9.515H4.649z"/>
</svg>
