<?xml version="1.0" encoding="utf-8"?>
<!-- Generator: Adobe Illustrator 16.0.0, SVG Export Plug-In . SVG Version: 6.00 Build 0)  -->
<!DOCTYPE svg PUBLIC "-//W3C//DTD SVG 1.1//EN" "http://www.w3.org/Graphics/SVG/1.1/DTD/svg11.dtd">
<svg version="1.1" id="Layer_1" xmlns="http://www.w3.org/2000/svg" xmlns:xlink="http://www.w3.org/1999/xlink" x="0px" y="0px"
	 width="50px" height="50px" viewBox="0 0 50 50" enable-background="new 0 0 50 50" xml:space="preserve">
<g>
	<path fill="none" stroke="#000000" stroke-width="2" stroke-miterlimit="10" d="M43.867,47.5H5.689
		c-1.762,0-3.189-1.427-3.189-3.188V5.689C2.5,3.928,3.927,2.5,5.689,2.5H44.31c1.764,0,3.19,1.428,3.19,3.189v38.177
		C47.5,45.873,45.873,47.5,43.867,47.5z"/>
	<path fill="none" stroke="#000000" stroke-width="2" stroke-miterlimit="10" d="M22.75,22.933c0.643,1.023,1.775,1.709,3.074,1.709
		c1.314,0,2.455-0.704,3.093-1.749c0.089-0.085,0.217-0.376,0.229-0.42c0.2-0.449,0.314-0.943,0.314-1.469
		c0-0.844-0.3-1.611-0.782-2.228c-0.803-1.5-2.143-3.226-3.114-6.551c-1.44,4.542-2.937,6.047-3.253,7.886
		c-0.073,0.288-0.124,0.584-0.124,0.893c0,0.545,0.127,1.055,0.341,1.519C22.562,22.642,22.683,22.911,22.75,22.933"/>
	<path fill="none" stroke="#000000" stroke-width="2" stroke-miterlimit="10" d="M25.648,32.91c-2.394-4.838-6.87-7.759-10.93-7.222
		c-0.185,5.516,4.32,11.098,10.915,11.019c7.345-0.089,11.065-6.109,10.884-11.223C31.471,25.965,27.564,27.916,25.648,32.91"/>
</g>
</svg>
